<svg width="192" height="48" viewBox="0 0 192 48" fill="none" xmlns="http://www.w3.org/2000/svg">
<g id="trustpilot-logo">
<path id="Shape" fill-rule="evenodd" clip-rule="evenodd" d="M50.5398 17.0919H69.9314V20.7568H62.2962V41.4162H58.1111V20.7568H50.5078L50.5398 17.0919ZM69.1008 23.8054H72.6789V27.2108H72.7428C72.8705 26.7243 73.0942 26.2703 73.4136 25.8162C73.7331 25.3622 74.1165 24.9405 74.5957 24.5838C75.0429 24.1946 75.5541 23.9027 76.1291 23.6757C76.6722 23.4486 77.2472 23.3189 77.8223 23.3189C78.1022 23.3189 78.3321 23.3316 78.5041 23.3411C78.6069 23.3468 78.689 23.3513 78.7487 23.3513C78.9085 23.3838 79.1002 23.4162 79.2599 23.4162V27.1459C79.0043 27.0811 78.7168 27.0486 78.4293 27.0162L78.351 27.0073C78.0946 26.9781 77.8598 26.9513 77.5987 26.9513C76.9597 26.9513 76.3527 27.0811 75.7777 27.3405C75.2027 27.6 74.7235 27.9892 74.2762 28.4757C73.8609 28.9946 73.5095 29.6108 73.2539 30.3568C72.9983 31.1027 72.8705 31.9784 72.8705 32.9513V41.3189H69.0369L69.1008 23.8054ZM93.0609 41.4162H96.8306H96.8626V23.8054H93.0289V34.0216C93.0289 34.7027 92.965 35.3513 92.8053 35.9351C92.6456 36.5189 92.422 37.0378 92.0705 37.4595C91.7511 37.8811 91.3038 38.2054 90.7607 38.4649C90.2176 38.7243 89.5467 38.8541 88.7481 38.8541C87.6938 38.8541 86.8632 38.5297 86.2882 37.8811C85.6812 37.2649 85.3937 36.1622 85.3937 34.6054V23.8054H81.5601V34.9946C81.5601 37.2973 82.0712 39.0486 83.0935 40.1838C84.1158 41.3513 85.777 41.9027 88.0453 41.9027C89.0037 41.9027 89.9621 41.6432 90.8885 41.0919C91.815 40.5405 92.5178 39.8595 92.997 38.9513H93.0609V41.4162ZM103.348 35.773C103.476 36.9081 103.891 37.6865 104.626 38.173C105.36 38.627 106.255 38.8541 107.277 38.8541C107.629 38.8541 108.044 38.8216 108.491 38.7568C108.938 38.6919 109.386 38.5946 109.769 38.4324C110.184 38.2703 110.504 38.0432 110.759 37.7189C111.015 37.3946 111.143 37.0054 111.111 36.5189C111.079 36.0324 110.919 35.6108 110.568 35.2865C110.216 34.9622 109.801 34.7351 109.29 34.5081C108.779 34.3135 108.172 34.1513 107.501 34.0216C106.955 33.9161 106.409 33.7891 105.846 33.6581L105.846 33.6581C105.717 33.628 105.587 33.5978 105.456 33.5676C104.753 33.4054 104.051 33.2108 103.38 32.9838C102.709 32.7568 102.134 32.4649 101.591 32.0432C101.08 31.6541 100.632 31.1676 100.345 30.5513C100.025 29.9351 99.8655 29.2216 99.8655 28.3135C99.8655 27.3405 100.089 26.5622 100.568 25.9135C101.016 25.2649 101.623 24.7459 102.325 24.3568C103.028 23.9676 103.827 23.6757 104.69 23.5135C105.552 23.3513 106.383 23.2865 107.149 23.2865C108.044 23.2865 108.906 23.3838 109.705 23.5784C110.504 23.773 111.271 24.0649 111.909 24.5189C112.58 24.9405 113.123 25.5243 113.539 26.2054C113.986 26.8865 114.242 27.7297 114.369 28.7027H110.376C110.184 27.7622 109.769 27.1459 109.13 26.8216C108.459 26.4973 107.724 26.3351 106.862 26.3351C106.606 26.3351 106.255 26.3676 105.904 26.4L105.903 26.4C105.52 26.4649 105.201 26.5297 104.849 26.6595C104.53 26.7892 104.242 26.9838 104.019 27.2108C103.795 27.4378 103.667 27.7622 103.667 28.1513C103.667 28.6378 103.827 28.9946 104.146 29.2865C104.466 29.5784 104.881 29.8054 105.424 30.0324C105.935 30.227 106.542 30.3892 107.213 30.5189C107.884 30.6486 108.587 30.8108 109.29 30.973C109.993 31.1351 110.664 31.3297 111.334 31.5568C112.005 31.7838 112.612 32.0757 113.123 32.4973C113.635 32.8865 114.082 33.373 114.401 33.9568C114.721 34.5405 114.881 35.2865 114.881 36.1297C114.881 37.1676 114.657 38.0432 114.178 38.7892C113.698 39.5027 113.092 40.1189 112.357 40.573C111.622 41.027 110.759 41.3513 109.865 41.5784C108.938 41.773 108.044 41.9027 107.149 41.9027C106.063 41.9027 105.041 41.773 104.114 41.5135C103.188 41.2541 102.357 40.8649 101.687 40.3784C101.016 39.8595 100.473 39.2432 100.089 38.4649C99.7058 37.7189 99.4822 36.8108 99.4502 35.7405H103.316V35.773H103.348ZM118.874 23.8054H115.967V26.6919H118.874V37.0703C118.906 37.7838 118.97 38.4649 119.097 39.0162C119.225 39.5676 119.449 40.0216 119.8 40.4108C120.152 40.7676 120.631 41.0595 121.238 41.2541C121.845 41.4486 122.644 41.5459 123.666 41.5459C124.113 41.5459 124.496 41.5459 124.912 41.4811C125.327 41.4486 125.742 41.4162 126.158 41.3513V38.3351C125.927 38.3936 125.671 38.4257 125.436 38.4552L125.359 38.4649C125.103 38.4973 124.816 38.4973 124.56 38.4973C124.113 38.4973 123.794 38.4324 123.538 38.3351C123.314 38.2378 123.123 38.0757 122.995 37.8811C122.899 37.6865 122.803 37.427 122.771 37.1351C122.739 36.8108 122.707 36.4865 122.707 36.0649V26.6595H126.158V23.773H122.707V18.4865H118.874V23.8054ZM128.873 23.8054H132.451V26.2054H132.515C133.058 25.1676 133.793 24.4541 134.751 24C135.71 23.5459 136.732 23.3189 137.882 23.3189C139.256 23.3189 140.438 23.5459 141.46 24.0649C142.483 24.5513 143.313 25.2 143.984 26.0757C144.655 26.9189 145.166 27.9243 145.486 29.0595C145.805 30.1946 145.997 31.427 145.997 32.6919C145.997 33.8919 145.837 35.027 145.549 36.1297C145.23 37.2324 144.783 38.2378 144.176 39.0811C143.569 39.9243 142.802 40.6054 141.844 41.1243C140.885 41.6432 139.799 41.9027 138.521 41.9027C137.978 41.9027 137.403 41.8378 136.86 41.7405C136.317 41.6432 135.774 41.4811 135.263 41.2541C134.751 41.027 134.272 40.7351 133.857 40.3784C133.41 40.0216 133.058 39.6 132.771 39.1459H132.707V47.9351H128.873V23.8054ZM141.907 30.3243C142.131 31.0703 142.227 31.8486 142.227 32.627C142.227 33.4054 142.131 34.1513 141.971 34.9297C141.812 35.6757 141.524 36.3243 141.141 36.9081C140.725 37.4595 140.246 37.9459 139.639 38.3027C139.032 38.6595 138.329 38.8541 137.435 38.8541C136.636 38.8541 135.965 38.6919 135.358 38.3676C134.751 38.0432 134.24 37.6216 133.825 37.0703C133.378 36.5189 133.09 35.8703 132.867 35.1243C132.643 34.3784 132.547 33.5676 132.547 32.6595C132.547 30.7784 132.962 29.2541 133.761 28.1189C134.592 26.9838 135.806 26.4324 137.403 26.4324C138.17 26.4324 138.873 26.5946 139.48 26.9513C140.055 27.3081 140.566 27.7622 140.981 28.3459C141.396 28.9297 141.716 29.5784 141.907 30.3243ZM148.968 17.0919H152.801V20.7568H148.968V17.0919ZM152.801 23.8054H148.968V41.4162H152.801V23.8054ZM156.22 17.0919H160.053V41.4162H156.22V17.0919ZM168.04 41.1892C169.126 41.6757 170.372 41.9027 171.746 41.9027C173.151 41.9027 174.365 41.6432 175.452 41.1892C176.538 40.7351 177.464 40.0865 178.199 39.2757C178.934 38.4324 179.477 37.4595 179.892 36.3243C180.307 35.1892 180.499 33.9568 180.499 32.5946C180.499 31.2649 180.276 30.0324 179.892 28.8973C179.509 27.7622 178.934 26.7568 178.199 25.9459C177.432 25.1351 176.538 24.4865 175.452 24.0324C174.365 23.5459 173.119 23.3189 171.746 23.3189C170.372 23.3189 169.126 23.5784 168.04 24.0324C166.954 24.4865 166.027 25.1351 165.293 25.9459C164.558 26.7892 163.983 27.7622 163.599 28.8973C163.184 30.0324 162.992 31.2649 162.992 32.5946C162.992 33.9243 163.216 35.1892 163.599 36.3243C163.983 37.4595 164.558 38.4649 165.293 39.2757C166.059 40.0865 166.954 40.7027 168.04 41.1892ZM171.746 38.8216C172.576 38.8216 173.343 38.627 173.95 38.2703C174.589 37.9135 175.068 37.427 175.484 36.8432C175.899 36.2595 176.186 35.5784 176.378 34.8649C176.57 34.1189 176.666 33.373 176.666 32.5946C176.666 31.8486 176.57 31.1027 176.378 30.3568C176.186 29.6108 175.899 28.9622 175.484 28.3784C175.068 27.7946 174.557 27.3405 173.95 26.9838C173.311 26.627 172.576 26.4324 171.746 26.4324C170.915 26.4324 170.148 26.627 169.541 26.9838C168.902 27.3405 168.423 27.827 168.008 28.3784C167.593 28.9622 167.305 29.6108 167.113 30.3568C166.922 31.1027 166.826 31.8486 166.826 32.5946C166.826 33.373 166.922 34.1189 167.113 34.8649C167.305 35.6108 167.593 36.2595 168.008 36.8432C168.423 37.427 168.934 37.9135 169.541 38.2703C170.18 38.6595 170.915 38.8216 171.746 38.8216ZM184.556 23.8054H181.649V26.6919H184.556V37.0703C184.588 37.7838 184.652 38.4649 184.78 39.0162C184.908 39.5676 185.131 40.0216 185.483 40.4108C185.834 40.7676 186.313 41.0595 186.92 41.2541C187.527 41.4486 188.326 41.5459 189.348 41.5459C189.796 41.5459 190.179 41.5459 190.594 41.4811C191.01 41.4486 191.425 41.4162 191.84 41.3513V38.3351C191.61 38.3936 191.354 38.4257 191.118 38.4552C191.093 38.4584 191.067 38.4616 191.042 38.4649C190.786 38.4973 190.498 38.4973 190.243 38.4973C189.796 38.4973 189.476 38.4324 189.221 38.3351C188.997 38.2378 188.805 38.0757 188.678 37.8811C188.582 37.6865 188.486 37.427 188.454 37.1351L188.454 37.1349C188.422 36.8106 188.39 36.4864 188.39 36.0649V26.6595H191.84V23.773H188.39V18.4865H184.556V23.8054Z" fill="black"/>
<path id="Path" d="M46.0672 17.0919H28.5284L23.1294 0.16214L17.6984 17.0919L0.159668 17.0594L14.344 27.5351L8.91308 44.4648L23.0974 33.9892L37.2818 44.4648L31.8828 27.5351L46.0672 17.0919Z" fill="#00B67A"/>
<path id="Path_2" d="M33.0967 31.3622L31.8827 27.5351L23.1293 33.9892L33.0967 31.3622Z" fill="#005128"/>
</g>
</svg>
